<svg width="8" height="12" viewBox="0 0 8 12" fill="none" xmlns="http://www.w3.org/2000/svg">
<path d="M6.91012 0.710047C6.81761 0.617343 6.70772 0.543796 6.58674 0.493614C6.46577 0.443433 6.33609 0.417603 6.20512 0.417603C6.07415 0.417603 5.94447 0.443433 5.8235 0.493614C5.70252 0.543796 5.59263 0.617343 5.50012 0.710047L0.91012 5.30005C0.817416 5.39256 0.743869 5.50245 0.693687 5.62342C0.643506 5.7444 0.617676 5.87408 0.617676 6.00505C0.617676 6.13602 0.643506 6.2657 0.693687 6.38667C0.743869 6.50764 0.817416 6.61753 0.91012 6.71005L5.50012 11.3C5.5927 11.3926 5.70261 11.4661 5.82358 11.5162C5.94454 11.5663 6.07419 11.5921 6.20512 11.5921C6.33605 11.5921 6.4657 11.5663 6.58666 11.5162C6.70763 11.4661 6.81754 11.3926 6.91012 11.3C7.0027 11.2075 7.07614 11.0976 7.12625 10.9766C7.17635 10.8556 7.20214 10.726 7.20214 10.595C7.20214 10.4641 7.17635 10.3345 7.12625 10.2135C7.07614 10.0925 7.0027 9.98263 6.91012 9.89005L3.03012 6.00005L6.91012 2.12005C7.29012 1.73005 7.29012 1.09005 6.91012 0.710047Z" fill="#6C6F93"/>
</svg>
