<svg width="28" height="28" viewBox="0 0 28 28" fill="none" xmlns="http://www.w3.org/2000/svg">
<path fill-rule="evenodd" clip-rule="evenodd" d="M6.70837 12.8333C6.70837 9.45057 9.45063 6.70831 12.8334 6.70831C16.2161 6.70831 18.9584 9.45057 18.9584 12.8333C18.9584 14.522 18.2761 16.0497 17.1702 17.1586C16.0603 18.2713 14.5279 18.9583 12.8334 18.9583C9.45063 18.9583 6.70837 16.2161 6.70837 12.8333ZM12.8334 4.95831C8.48413 4.95831 4.95837 8.48407 4.95837 12.8333C4.95837 17.1826 8.48413 20.7083 12.8334 20.7083C14.6924 20.7083 16.402 20.0633 17.7488 18.9862L21.548 22.7854C21.8897 23.1271 22.4437 23.1271 22.7854 22.7854C23.1271 22.4437 23.1271 21.8896 22.7854 21.5479L18.9862 17.7487C20.0634 16.4019 20.7084 14.6923 20.7084 12.8333C20.7084 8.48407 17.1826 4.95831 12.8334 4.95831Z" fill="#9496B8"/>
</svg>
